<svg width="133" height="30" viewBox="0 0 133 30" fill="none" xmlns="http://www.w3.org/2000/svg">
<path d="M29.9389 15.0266C29.9389 23.3212 23.2362 30.0053 14.9256 30C6.61499 29.992 0 23.2893 0 14.8804C0.00265769 6.6894 6.7399 -0.00531222 14.9734 3.16299e-06C23.2654 0.00531854 29.9389 6.70535 29.9389 15.0266ZM14.9522 25.5723C20.8124 25.5749 25.5563 20.831 25.543 14.9814C25.5298 9.16372 20.7884 4.41974 14.9787 4.40911C9.17434 4.40114 4.41176 9.1398 4.38519 14.9522C4.35861 20.8017 9.10524 25.5723 14.9522 25.5723Z" fill="#CB222A"/>
<path d="M54.3022 15.0187C54.3022 12.1218 54.3022 9.22491 54.3022 6.32803C54.3022 6.0224 54.3022 5.71676 54.3235 5.41379C54.4191 3.97332 55.0862 3.25043 56.524 3.02452C56.718 2.99529 56.912 2.95808 57.1061 2.95808C60.088 2.97403 63.0726 2.82785 66.0518 3.0697C67.6943 3.20259 69.2065 3.68895 70.4477 4.83707C73.2143 7.39908 73.2329 12.9164 70.4689 15.4838C69.1348 16.7249 67.4764 17.2139 65.7196 17.4345C63.745 17.6817 61.7597 17.5461 59.7797 17.5488C59.2428 17.5488 59.1445 17.7162 59.1525 18.2052C59.1791 20.1879 59.1631 22.1705 59.1631 24.1505C59.1631 24.6741 59.1418 25.195 58.9558 25.6946C58.5731 26.7285 57.7253 27.2813 56.5692 27.2414C55.538 27.2068 54.7381 26.5584 54.443 25.5272C54.3022 25.0382 54.2969 24.5385 54.2969 24.0389C54.3022 21.0304 54.3022 18.0245 54.3022 15.0187ZM62.1264 6.62303C61.1138 6.62303 60.4149 6.64164 59.7212 6.61506C59.3226 6.60177 59.1498 6.67353 59.1551 7.14128C59.1844 9.20897 59.1817 11.2793 59.1551 13.347C59.1498 13.8068 59.3146 13.8865 59.7159 13.8759C60.7179 13.8519 61.7198 13.8892 62.7217 13.8626C63.7662 13.8333 64.808 13.751 65.7781 13.2965C67.1069 12.6719 67.673 11.5344 67.5375 9.76708C67.4259 8.31864 66.6631 7.35921 65.3077 6.96588C64.1649 6.63367 62.9849 6.64164 62.1264 6.62303Z" fill="#313331"/>
<path d="M82.4241 9.16895C87.8059 9.17161 91.4231 12.9827 91.2264 18.4044C91.1334 20.9585 90.4902 23.3105 88.5102 25.0274C85.4672 27.6691 81.9325 27.9455 78.3685 26.4094C74.8205 24.8812 73.5395 21.7956 73.5235 18.0908C73.5182 16.7513 73.7468 15.4491 74.2544 14.2053C75.5859 10.9523 78.4854 9.16629 82.4241 9.16895ZM86.7429 18.1493C86.7003 16.9453 86.5648 15.7388 85.9589 14.6411C85.1615 13.1927 83.9204 12.4565 82.2806 12.4884C80.6647 12.5203 79.4236 13.2618 78.7512 14.7501C77.7227 17.0277 77.7147 19.3559 78.7432 21.6335C79.397 23.0793 80.5903 23.8474 82.1982 23.9005C83.7928 23.951 85.0154 23.2946 85.8472 21.9312C86.5542 20.7751 86.7083 19.4861 86.7429 18.1493Z" fill="#313331"/>
<path d="M107.155 11.9888C107.341 11.7762 107.474 11.6167 107.615 11.4625C109.611 9.26463 112.082 8.69589 114.868 9.46928C117.044 10.0752 118.445 11.8904 118.631 14.1468C118.697 14.9494 118.732 15.7547 118.737 16.56C118.751 19.1752 118.745 21.7877 118.737 24.4028C118.737 24.7271 118.708 25.0566 118.65 25.3755C118.424 26.6034 117.634 27.2625 116.438 27.2412C115.333 27.2226 114.512 26.4758 114.333 25.3064C114.283 24.9636 114.278 24.6128 114.275 24.2646C114.24 21.5432 114.344 18.819 114.214 16.0976C114.193 15.6643 114.131 15.2285 114.033 14.8059C113.653 13.1714 112.526 12.4167 110.849 12.6505C109.1 12.895 107.766 14.2478 107.522 16.0178C107.408 16.839 107.376 17.6656 107.376 18.4948C107.378 20.5439 107.394 22.5903 107.37 24.6394C107.352 26.2366 106.523 27.2093 105.218 27.2412C104.046 27.2705 103.174 26.5715 102.967 25.4048C102.905 25.0646 102.887 24.7111 102.887 24.3656C102.881 20.2037 102.881 16.0444 102.887 11.8825C102.887 11.5795 102.903 11.2712 102.945 10.9709C103.097 9.85996 103.79 9.20617 104.832 9.16896C105.962 9.12909 106.77 9.74036 107.001 10.8327C107.075 11.1835 107.097 11.5476 107.155 11.9888Z" fill="#313331"/>
<path d="M37.3274 11.9969C37.5746 11.7259 37.7686 11.5026 37.9733 11.29C39.932 9.24888 42.3212 8.73329 44.9816 9.44555C47.1981 10.0409 48.6253 11.8508 48.8166 14.139C48.8778 14.8752 48.9123 15.6167 48.915 16.3555C48.9256 19.0345 48.9176 21.7161 48.9203 24.3951C48.9203 24.8788 48.8804 25.3518 48.721 25.8089C48.4153 26.6807 47.719 27.1936 46.8048 27.2335C45.8693 27.2733 45.0985 26.7896 44.7265 25.9418C44.5005 25.4289 44.4846 24.8894 44.4766 24.3419C44.4341 21.4902 44.5803 18.6358 44.3942 15.7841C44.3783 15.5449 44.3411 15.3084 44.2933 15.0745C43.8308 12.8793 42.0794 11.9836 40.0144 12.9138C38.6829 13.5145 37.9254 14.5776 37.7048 16.0207C37.5746 16.8844 37.5534 17.7561 37.5534 18.6279C37.5534 20.6105 37.5613 22.5931 37.5507 24.5758C37.5427 26.0348 36.9474 26.9119 35.8338 27.175C34.6857 27.4461 33.6253 26.8508 33.2585 25.7292C33.107 25.2668 33.0938 24.7884 33.0938 24.3074C33.0938 20.1693 33.0938 16.0286 33.0964 11.8906C33.0964 11.5637 33.0991 11.2342 33.1522 10.9126C33.325 9.83623 34.0133 9.20902 35.0312 9.16915C36.1235 9.12663 36.9288 9.72195 37.1733 10.785C37.2583 11.1518 37.2716 11.5398 37.3274 11.9969Z" fill="#CB222A"/>
<path d="M123.495 18.1417C123.495 16.3291 123.482 14.8249 123.503 13.3206C123.508 12.9352 123.434 12.7678 123.009 12.797C122.711 12.8183 122.397 12.7625 122.105 12.6801C121.409 12.4861 120.994 11.9439 120.97 11.2582C120.944 10.4928 121.286 9.97458 122.009 9.70615C122.132 9.66097 122.259 9.6344 122.384 9.59985C122.735 9.49885 123.258 9.73539 123.421 9.44304C123.599 9.12146 123.484 8.64042 123.492 8.22848C123.514 7.16274 123.434 6.0917 123.585 5.03128C123.713 4.12766 124.199 3.49248 125.071 3.22405C125.964 2.94765 126.745 3.20279 127.386 3.8805C127.75 4.26321 127.907 4.73362 127.92 5.24921C127.949 6.46909 127.984 7.68897 127.965 8.90885C127.957 9.40318 128.064 9.62377 128.603 9.57327C129.076 9.52809 129.562 9.54669 130.038 9.59187C130.902 9.67426 131.473 10.2483 131.548 11.0456C131.62 11.8376 131.197 12.3798 130.307 12.6296C129.693 12.8024 129.06 12.8183 128.428 12.813C128.111 12.8103 127.965 12.8768 127.971 13.2435C128 16.1856 127.986 19.125 128.034 22.0671C128.058 23.4942 128.555 23.8876 129.961 23.7308C130.349 23.6883 130.732 23.5926 131.12 23.5368C131.904 23.4225 132.513 23.7148 132.815 24.3394C133.134 24.9985 132.967 25.7852 132.39 26.2981C131.883 26.7473 131.258 26.9413 130.615 27.0742C129.517 27.3001 128.401 27.3319 127.295 27.2017C124.914 26.92 123.859 25.7825 123.604 23.3906C123.41 21.5355 123.545 19.6831 123.495 18.1417Z" fill="#313331"/>
<path d="M98.801 18.1656C98.801 20.2997 98.7984 22.4338 98.8037 24.568C98.8037 25.0304 98.7665 25.4822 98.5911 25.9127C98.2243 26.8031 97.435 27.2815 96.4064 27.2416C95.5267 27.2097 94.8171 26.6649 94.5195 25.7852C94.3627 25.3254 94.3281 24.8497 94.3281 24.3686C94.3308 20.2306 94.3255 16.0926 94.3334 11.9546C94.3334 11.6091 94.3627 11.2556 94.4371 10.9181C94.7108 9.68224 95.5374 9.0816 96.7998 9.17196C97.8761 9.24904 98.7186 10.0782 98.7771 11.237C98.8356 12.3878 98.801 13.5439 98.8037 14.6973C98.8037 15.8561 98.801 17.0095 98.801 18.1656Z" fill="#313331"/>
<path d="M98.8011 4.97269C98.7905 6.28293 97.8948 7.14403 96.55 7.13074C95.2159 7.11745 94.3176 6.22712 94.3282 4.93017C94.3388 3.69435 95.3328 2.75087 96.6165 2.75884C97.948 2.7615 98.8117 3.63588 98.8011 4.97269Z" fill="#313331"/>
<path d="M14.9458 19.9327C12.219 19.9274 9.99714 17.695 10.0157 14.9815C10.0343 12.2494 12.2482 10.0594 14.983 10.0674C17.7151 10.078 19.9209 12.2945 19.9077 15.0187C19.897 17.7508 17.6858 19.9354 14.9458 19.9327Z" fill="#CB222A"/>
</svg>
